<svg width="150" height="150" xmlns="http://www.w3.org/2000/svg">
  <rect width="100%" height="100%" fill="#f8f9fa"/>
  <rect x="20" y="20" width="110" height="110" fill="#fff"/>
  
  <!-- QR Code Pattern (simplified) -->
  <rect x="30" y="30" width="10" height="10" fill="#333"/>
  <rect x="40" y="30" width="10" height="10" fill="#333"/>
  <rect x="50" y="30" width="10" height="10" fill="#333"/>
  <rect x="30" y="40" width="10" height="10" fill="#333"/>
  <rect x="50" y="40" width="10" height="10" fill="#333"/>
  <rect x="30" y="50" width="10" height="10" fill="#333"/>
  <rect x="40" y="50" width="10" height="10" fill="#333"/>
  <rect x="50" y="50" width="10" height="10" fill="#333"/>
  
  <rect x="90" y="30" width="10" height="10" fill="#333"/>
  <rect x="100" y="30" width="10" height="10" fill="#333"/>
  <rect x="110" y="30" width="10" height="10" fill="#333"/>
  <rect x="90" y="40" width="10" height="10" fill="#333"/>
  <rect x="110" y="40" width="10" height="10" fill="#333"/>
  <rect x="90" y="50" width="10" height="10" fill="#333"/>
  <rect x="100" y="50" width="10" height="10" fill="#333"/>
  <rect x="110" y="50" width="10" height="10" fill="#333"/>
  
  <rect x="30" y="90" width="10" height="10" fill="#333"/>
  <rect x="40" y="90" width="10" height="10" fill="#333"/>
  <rect x="50" y="90" width="10" height="10" fill="#333"/>
  <rect x="30" y="100" width="10" height="10" fill="#333"/>
  <rect x="50" y="100" width="10" height="10" fill="#333"/>
  <rect x="30" y="110" width="10" height="10" fill="#333"/>
  <rect x="40" y="110" width="10" height="10" fill="#333"/>
  <rect x="50" y="110" width="10" height="10" fill="#333"/>
  
  <!-- Center Pattern -->
  <rect x="70" y="70" width="10" height="10" fill="#333"/>
  <rect x="70" y="60" width="10" height="10" fill="#333"/>
  <rect x="70" y="80" width="10" height="10" fill="#333"/>
  <rect x="60" y="70" width="10" height="10" fill="#333"/>
  <rect x="80" y="70" width="10" height="10" fill="#333"/>
  
  <text x="75" y="135" font-family="Arial" font-size="8" text-anchor="middle" fill="#333">موقع المكان</text>
</svg>